<svg width="20" height="22" viewBox="0 0 20 22" fill="none" xmlns="http://www.w3.org/2000/svg">
<path d="M19.1977 20.3075V18.2389C19.1977 17.1416 18.7341 16.0893 17.9089 15.3134C17.0838 14.5375 15.9646 14.1016 14.7977 14.1016H5.99766C4.8307 14.1016 3.71155 14.5375 2.88639 15.3134C2.06123 16.0893 1.59766 17.1416 1.59766 18.2389V20.3075" fill="#50C878"/>
<path d="M19.1977 20.3075V18.2389C19.1977 17.1416 18.7341 16.0893 17.9089 15.3134C17.0838 14.5375 15.9646 14.1016 14.7977 14.1016H5.99766C4.8307 14.1016 3.71155 14.5375 2.88639 15.3134C2.06123 16.0893 1.59766 17.1416 1.59766 18.2389V20.3075" stroke="#4169E1" stroke-width="1.5" stroke-linecap="round" stroke-linejoin="round"/>
<path d="M10.3961 9.96213C12.8261 9.96213 14.7961 8.10979 14.7961 5.82481C14.7961 3.53984 12.8261 1.6875 10.3961 1.6875C7.96604 1.6875 5.99609 3.53984 5.99609 5.82481C5.99609 8.10979 7.96604 9.96213 10.3961 9.96213Z" fill="#50C878" stroke="#4169E1" stroke-width="1.5" stroke-linecap="round" stroke-linejoin="round"/>
</svg>
