<svg width="25" height="25" viewBox="0 0 25 25" fill="none" xmlns="http://www.w3.org/2000/svg">
<g clip-path="url(#clip0_5692_1370)">
<path d="M21.5117 0.203125H3.0731C1.37829 0.203125 0 1.58141 0 3.27623V21.7149C0 23.4097 1.37829 24.788 3.0731 24.788H21.5117C23.2065 24.788 24.5848 23.4097 24.5848 21.7149V3.27623C24.5848 1.58141 23.2065 0.203125 21.5117 0.203125Z" fill="#1976D2"/>
<path d="M20.7429 12.4953H16.9015V9.42216C16.9015 8.57398 17.5899 8.65388 18.4381 8.65388H19.9746V4.8125H16.9015C14.3554 4.8125 12.2919 6.87609 12.2919 9.42216V12.4953H9.21875V16.3366H12.2919V24.7877H16.9015V16.3366H19.2063L20.7429 12.4953Z" fill="#FAFAFA"/>
</g>
<defs>
<clipPath id="clip0_5692_1370">
<rect width="24.5848" height="24.5848" fill="white" transform="translate(0 0.203125)"/>
</clipPath>
</defs>
</svg>
