<svg width="26" height="25" viewBox="0 0 26 25" fill="none" xmlns="http://www.w3.org/2000/svg">
<g clip-path="url(#clip0_5692_1381)">
<path d="M21.9863 0.203125H4.10638C2.25486 0.203125 0.753906 1.70408 0.753906 3.5556V21.4355C0.753906 23.287 2.25486 24.788 4.10638 24.788H21.9863C23.8378 24.788 25.3387 23.287 25.3387 21.4355V3.5556C25.3387 1.70408 23.8378 0.203125 21.9863 0.203125Z" fill="#0077B5"/>
<path d="M9.61638 6.9078C9.61638 7.32221 9.49349 7.72731 9.26326 8.07188C9.03302 8.41645 8.70578 8.68501 8.32292 8.8436C7.94005 9.00219 7.51876 9.04368 7.11231 8.96284C6.70586 8.88199 6.33251 8.68243 6.03948 8.3894C5.74645 8.09637 5.54689 7.72302 5.46604 7.31657C5.3852 6.91012 5.42669 6.48883 5.58528 6.10596C5.74387 5.7231 6.01243 5.39586 6.357 5.16562C6.70157 4.93539 7.10667 4.8125 7.52108 4.8125C8.07679 4.8125 8.60974 5.03325 9.00268 5.4262C9.39563 5.81914 9.61638 6.35209 9.61638 6.9078Z" fill="white"/>
<path d="M9.14085 10.4024V19.6595C9.14122 19.7278 9.12808 19.7955 9.10221 19.8587C9.07633 19.9219 9.03821 19.9793 8.99005 20.0277C8.94189 20.0762 8.88464 20.1146 8.82158 20.1408C8.75852 20.167 8.6909 20.1805 8.62261 20.1805H6.41417C6.34588 20.1807 6.27822 20.1674 6.21509 20.1413C6.15197 20.1153 6.09461 20.077 6.04632 20.0287C5.99803 19.9804 5.95976 19.9231 5.93371 19.8599C5.90766 19.7968 5.89435 19.7292 5.89453 19.6609V10.4024C5.89453 10.2646 5.94928 10.1325 6.04673 10.035C6.14418 9.93756 6.27635 9.88281 6.41417 9.88281H8.62261C8.76019 9.88318 8.892 9.93809 8.98915 10.0355C9.08629 10.1329 9.14085 10.2649 9.14085 10.4024Z" fill="white"/>
<path d="M20.6867 15.219V19.7002C20.6868 19.763 20.6746 19.8252 20.6507 19.8832C20.6267 19.9413 20.5915 19.994 20.5471 20.0384C20.5027 20.0828 20.45 20.118 20.392 20.1419C20.3339 20.1659 20.2717 20.1781 20.2089 20.1779H17.8343C17.7715 20.1781 17.7093 20.1659 17.6512 20.1419C17.5932 20.118 17.5404 20.0828 17.496 20.0384C17.4516 19.994 17.4165 19.9413 17.3925 19.8832C17.3686 19.8252 17.3563 19.763 17.3565 19.7002V15.3573C17.3565 14.7092 17.5465 12.5189 15.6621 12.5189C14.2024 12.5189 13.9049 14.0177 13.8462 14.691V19.7002C13.8462 19.8257 13.7968 19.9462 13.7088 20.0355C13.6207 20.1249 13.5009 20.1761 13.3755 20.1779H11.0818C11.0191 20.1779 10.9571 20.1655 10.8992 20.1415C10.8413 20.1175 10.7887 20.0823 10.7445 20.0379C10.7002 19.9935 10.6652 19.9409 10.6413 19.8829C10.6175 19.8249 10.6053 19.7629 10.6055 19.7002V10.3593C10.6053 10.2967 10.6175 10.2346 10.6413 10.1766C10.6652 10.1187 10.7002 10.066 10.7445 10.0216C10.7887 9.97724 10.8413 9.94203 10.8992 9.91801C10.9571 9.89398 11.0191 9.88161 11.0818 9.88161H13.3755C13.5022 9.88161 13.6237 9.93195 13.7133 10.0215C13.8029 10.1111 13.8532 10.2326 13.8532 10.3593V11.1667C14.3952 10.3538 15.1984 9.72656 16.9123 9.72656C20.709 9.72656 20.6867 13.2718 20.6867 15.219Z" fill="white"/>
</g>
<defs>
<clipPath id="clip0_5692_1381">
<rect width="24.5848" height="24.5848" fill="white" transform="translate(0.753906 0.203125)"/>
</clipPath>
</defs>
</svg>
