<svg width="31" height="31" viewBox="0 0 31 31" fill="none" xmlns="http://www.w3.org/2000/svg">
<g clip-path="url(#clip0_5692_1389)">
<path d="M2.40329 26.8714H7.22716V15.1564L4.06842 9.64062L0.335938 9.98796V24.8041C0.335938 25.9463 1.26109 26.8714 2.40329 26.8714Z" fill="#0085F7"/>
<path d="M23.7695 26.8714H28.5934C29.7356 26.8714 30.6608 25.9463 30.6608 24.8041V9.98796L26.9337 9.64062L23.7696 15.1564V26.8714H23.7695Z" fill="#00A94B"/>
<path d="M23.7672 6.19791L20.9336 11.605L23.7672 15.1565L30.6584 9.98808V7.23162C30.6584 4.6767 27.7417 3.21748 25.6967 4.75078L23.7672 6.19791Z" fill="#FFBC00"/>
<path fill-rule="evenodd" clip-rule="evenodd" d="M7.23133 15.1617L4.53125 9.45811L7.23133 6.20312L15.5007 12.4052L23.7702 6.20312V15.1617L15.5007 21.3638L7.23133 15.1617Z" fill="#FF4131"/>
<path d="M0.335938 7.23162V9.98808L7.22716 15.1565V6.19791L5.29762 4.75078C3.25265 3.21748 0.335938 4.6767 0.335938 7.23162Z" fill="#E51C19"/>
</g>
<defs>
<clipPath id="clip0_5692_1389">
<rect width="30.3213" height="30.3213" fill="white" transform="translate(0.339844 0.335938)"/>
</clipPath>
</defs>
</svg>
