<svg width="107" height="139" viewBox="0 0 107 139" fill="none" xmlns="http://www.w3.org/2000/svg">
<g opacity="0.5">
<path d="M16.0179 15.8387H6.10798C4.21652 15.8387 2.67773 14.3854 2.67773 12.599V3.23967C2.67773 1.45329 4.21652 0 6.10798 0H16.0179C17.9094 0 19.4482 1.45329 19.4482 3.23967V12.599C19.4482 14.3854 17.9094 15.8387 16.0179 15.8387Z" fill="#D7D7D7"/>
<path d="M58.7699 15.8387H48.8599C46.9685 15.8387 45.4297 14.3854 45.4297 12.599V3.23967C45.4297 1.45329 46.9685 0 48.8599 0H58.7699C60.6613 0 62.2001 1.45329 62.2001 3.23967V12.599C62.2001 14.3854 60.6613 15.8387 58.7699 15.8387Z" fill="#D7D7D7"/>
<path d="M101.051 15.8387H91.1412C89.2497 15.8387 87.7109 14.3854 87.7109 12.599V3.23967C87.7109 1.45329 89.2497 0 91.1412 0H101.051C102.943 0 104.481 1.45329 104.481 3.23967V12.599C104.481 14.3854 102.943 15.8387 101.051 15.8387Z" fill="#D7D7D7"/>
<path d="M16.0179 47.073H6.10798C4.21652 47.073 2.67773 45.6198 2.67773 43.8334V34.474C2.67773 32.6877 4.21652 31.2344 6.10798 31.2344H16.0179C17.9094 31.2344 19.4482 32.6877 19.4482 34.474V43.8334C19.4482 45.6198 17.9094 47.073 16.0179 47.073Z" fill="#2F2E41"/>
<path d="M58.7699 47.073H48.8599C46.9685 47.073 45.4297 45.6198 45.4297 43.8334V34.474C45.4297 32.6877 46.9685 31.2344 48.8599 31.2344H58.7699C60.6613 31.2344 62.2001 32.6877 62.2001 34.474V43.8334C62.2001 45.6198 60.6613 47.073 58.7699 47.073Z" fill="#D7D7D7"/>
<path d="M101.051 47.073H91.1412C89.2497 47.073 87.7109 45.6198 87.7109 43.8334V34.474C87.7109 32.6877 89.2497 31.2344 91.1412 31.2344H101.051C102.943 31.2344 104.481 32.6877 104.481 34.474V43.8334C104.481 45.6198 102.943 47.073 101.051 47.073Z" fill="#D7D7D7"/>
<path d="M17.6756 36.6941C19.8933 36.6941 21.6911 34.9962 21.6911 32.9017C21.6911 30.8073 19.8933 29.1094 17.6756 29.1094C15.4579 29.1094 13.6602 30.8073 13.6602 32.9017C13.6602 34.9962 15.4579 36.6941 17.6756 36.6941Z" fill="#4169E1"/>
<path d="M67.9961 31.2247C67.9961 31.5928 67.9513 31.9698 67.8568 32.3468L63.9097 48.2101C63.35 50.4654 60.9572 51.8619 58.5715 51.3287L42.7531 46.6931L41.9807 46.4678C41.0807 47.0835 39.8242 47.3668 38.5109 47.1482C36.2149 46.7645 34.6253 44.9999 34.9607 43.2041C35.2962 41.4106 37.4291 40.2662 39.725 40.6476C41.0383 40.8662 42.1177 41.5377 42.7413 42.4055L42.7531 42.4077L42.7932 42.4144L56.5615 44.0229L57.7189 30.8344C57.9386 28.3136 60.1683 26.375 62.8468 26.375C65.7522 26.375 67.9961 28.617 67.9961 31.2247Z" fill="#EB9B9E"/>
<path d="M67.9954 31.2248C67.9954 31.5928 67.9505 31.9698 67.8561 32.3468L64.6176 48.8793C64.0579 51.1346 61.6651 52.5311 59.2794 51.998L43.4609 47.8442L44.1695 41.3749L56.2159 42.9364L57.7181 30.8344C57.9378 28.3135 60.1676 26.375 62.8461 26.375C65.7514 26.375 67.9954 28.617 67.9954 31.2248Z" fill="#2F2E43"/>
<path d="M0 137.523H8.39466H15.8563H16.1563H22.7251H67.71H78.4147H107" stroke="#090814" stroke-width="1.5" stroke-miterlimit="10"/>
<path d="M88.5395 118.34L84.7188 121L87.5355 124.609L91.3563 121.948L88.5395 118.34Z" fill="#EB9B9E"/>
<path d="M93.2656 125.683L85.1439 131.338C84.4497 131.821 83.6349 132.157 82.7876 132.308L80.7597 132.671C80.3405 132.746 79.9059 132.585 79.6527 132.26C79.3557 131.88 79.3641 131.355 79.6732 130.983L82.132 128.025L85.3686 121.722L85.3873 121.738C85.8552 122.142 86.5657 122.75 86.619 122.78C87.6186 122.989 88.3862 122.871 88.9007 122.431C89.798 121.663 89.6171 120.156 89.6152 120.141L89.6137 120.129L89.6244 120.123C89.8688 119.987 90.1043 119.957 90.3244 120.033C90.7916 120.194 91.0353 120.773 91.0703 120.862C91.5264 120.922 92.7126 122.207 92.8079 122.31C93.4904 122.427 93.9602 122.669 94.2043 123.03C94.4178 123.345 94.4591 123.747 94.3274 124.224C94.1688 124.798 93.7918 125.316 93.2656 125.683Z" fill="#2F2E43"/>
<path d="M55.7762 128.867H51.0293V133.35H55.7762V128.867Z" fill="#EB9B9E"/>
<path d="M54.9648 137.434H44.8747C44.0122 137.434 43.1456 137.247 42.3683 136.895L40.5081 136.05C40.1235 135.875 39.875 135.502 39.875 135.099C39.875 134.627 40.2119 134.208 40.6942 134.082L44.5318 133.079L51.097 129.82L51.1019 129.844C51.2247 130.431 51.4149 131.318 51.4391 131.372C52.1124 132.101 52.804 132.436 53.4948 132.37C54.6997 132.255 55.5007 130.941 55.5087 130.927L55.5148 130.917L55.5271 130.918C55.8092 130.946 56.0179 131.053 56.1474 131.238C56.4223 131.629 56.2546 132.232 56.227 132.323C56.5562 132.627 56.7039 134.326 56.7153 134.463C57.1913 134.939 57.4175 135.398 57.3875 135.824C57.3613 136.198 57.1421 136.544 56.7361 136.855C56.2476 137.228 55.6186 137.434 54.9648 137.434Z" fill="#2F2E43"/>
<path d="M75.1441 58.7891H52.394L48.7676 130.068H56.7794L61.9558 97.6687L82.7274 123.588L90.3108 117.108L75.1441 97.6687V58.7891Z" fill="#2F2E43"/>
<path d="M69.2869 11.9446C69.2869 11.9446 75.5549 11.9318 73.2134 6.22786C70.8719 0.523869 66.5118 3.07785 66.5118 3.07785C66.5118 3.07785 64.6746 3.99437 65.0534 6.03921" fill="#2F2E43"/>
<path d="M69.9152 14.6842C69.9152 10.3109 66.1614 6.76562 61.5309 6.76562C56.9004 6.76562 53.1465 10.3109 53.1465 14.6842C53.1465 18.2309 55.6156 21.2326 59.0189 22.2407L60.6398 32.3575L68.9027 25.8543C68.9027 25.8543 67.1176 23.707 66.1603 21.2857C68.4229 19.8676 69.9152 17.4409 69.9152 14.6842Z" fill="#EB9B9E"/>
<path d="M65.5576 21.3698C65.5576 21.3698 66.671 17.3382 64.8504 15.4845C63.034 13.635 62.7994 16.5127 62.7994 16.5127L61.4887 16.2436C61.4887 16.2436 61.7166 13.445 59.1523 12.9606L60.8048 9.62383C60.8048 9.62383 54.4779 10.784 54.3035 10.2053C52.9313 5.65151 66.0216 1.7615 69.6376 8.7089C75.2618 19.5144 65.5576 21.3698 65.5576 21.3698Z" fill="#2F2E43"/>
<path d="M70.1483 49.0156L73.8639 59.3566L52.8418 59.1335L55.9761 49.6849L70.1483 49.0156Z" fill="#EB9B9E"/>
<path d="M68.249 22.7734L58.9266 25.8343L50.1133 68.8052L68.249 70.8964L69.5714 64.3447L70.8321 70.8964H77.1142L70.3413 28.165C70.0381 26.2524 69.3263 24.4181 68.249 22.7734Z" fill="#4169E1"/>
<path d="M65.6359 73.262L65.7981 66.1988L61.4316 66.1094L61.2693 73.1725C60.4546 73.8868 59.9168 74.9966 59.8879 76.2549C59.8374 78.4566 61.3603 80.2734 63.2896 80.313C65.2189 80.3525 66.8238 78.5998 66.8744 76.3981C66.9033 75.1398 66.417 74.009 65.6359 73.262Z" fill="#EB9B9E"/>
<path d="M59.6074 37.9141V72.1498H67.1908L69.432 38.2031" fill="#2F2E43"/>
<path d="M74.8787 74.2247C74.7456 74.2247 74.6125 74.2203 74.479 74.2107C72.8855 74.0976 71.5144 73.2907 70.4035 71.8127C66.2229 66.2491 57.793 47.8378 57.793 42.6021C57.793 37.5989 58.9463 26.1318 58.9862 25.96L67.5004 21.5078C71.585 22.4135 74.4282 25.9462 74.2612 29.9079C73.8532 39.5872 74.9039 61.6521 81.7784 70.796L81.8352 70.8714L81.7674 70.938C81.6253 71.077 78.3692 74.2247 74.8787 74.2247Z" fill="#2F2E43"/>
</g>
</svg>
