<?xml version="1.0" standalone="no"?>
<!DOCTYPE svg PUBLIC "-//W3C//DTD SVG 20010904//EN"
 "http://www.w3.org/TR/2001/REC-SVG-20010904/DTD/svg10.dtd">
<svg version="1.0" xmlns="http://www.w3.org/2000/svg"
 width="512.000000pt" height="512.000000pt" viewBox="0 0 512.000000 512.000000"
 preserveAspectRatio="xMidYMid meet">

<g transform="translate(0.000000,512.000000) scale(0.100000,-0.100000)"
fill="#000000" stroke="none">
<path d="M2210 4518 c-36 -11 -77 -12 -192 -6 -57 3 -71 0 -98 -21 -29 -21
-38 -23 -89 -15 -31 4 -76 8 -100 8 -39 1 -46 -2 -60 -29 -11 -19 -37 -40 -75
-58 -34 -17 -64 -40 -74 -57 -9 -15 -35 -39 -58 -53 -58 -35 -84 -89 -93 -191
-4 -45 -15 -96 -25 -114 -12 -23 -16 -53 -15 -100 2 -44 -4 -83 -15 -114 -18
-46 -18 -48 3 -74 18 -23 21 -38 19 -103 -3 -67 0 -83 25 -128 25 -49 27 -61
27 -176 0 -141 18 -297 56 -482 14 -71 29 -172 31 -224 l5 -95 -50 55 c-38 41
-53 51 -62 42 -14 -13 -4 -96 11 -88 11 8 60 -19 81 -44 10 -11 26 -65 37
-120 18 -91 55 -248 68 -295 4 -14 1 -18 -11 -13 -24 9 -20 -2 9 -25 15 -12
31 -41 41 -76 16 -55 46 -131 84 -217 10 -22 27 -60 37 -85 27 -67 104 -179
159 -231 81 -77 189 -126 349 -161 75 -16 326 -16 422 0 39 7 122 19 185 27
183 24 357 74 503 146 123 60 155 80 155 96 0 34 41 83 79 93 32 8 55 5 154
-24 64 -19 121 -37 127 -41 5 -3 15 -3 20 0 19 12 -8 41 -62 64 -142 63 -240
115 -253 135 -22 33 -9 88 30 126 27 26 44 34 91 39 l58 6 13 44 c7 24 22 103
33 175 12 72 23 141 25 152 3 14 16 24 37 29 l33 8 -27 4 c-16 3 -29 5 -29 6
-1 1 -3 83 -5 182 -3 170 -2 184 22 250 14 42 36 80 52 95 16 14 38 39 49 55
l21 31 -22 2 c-47 4 -107 -84 -122 -178 -7 -45 -7 -45 -26 50 -13 62 -17 117
-14 158 10 117 -41 579 -79 719 -35 131 -63 181 -144 255 -64 57 -72 69 -81
115 -10 56 -31 109 -52 133 -64 73 -225 157 -363 189 -49 11 -134 36 -188 56
-124 44 -282 77 -361 74 -34 -1 -92 6 -131 14 -79 19 -124 20 -175 5z m952
-621 c182 -67 271 -181 343 -442 9 -33 39 -112 67 -175 101 -228 118 -289 125
-440 5 -116 -4 -249 -21 -335 -33 -160 -64 -232 -130 -303 -61 -65 -101 -82
-191 -82 -80 0 -115 12 -150 50 -42 46 -66 52 -162 36 -48 -8 -113 -22 -143
-31 -30 -8 -72 -18 -93 -22 -38 -6 -38 -6 -26 20 6 14 8 38 5 53 l-7 27 -37
-36 c-52 -51 -108 -69 -232 -74 -124 -5 -145 3 -177 65 l-21 43 -7 -31 c-8
-38 10 -96 37 -114 23 -16 29 -15 -114 -36 -94 -14 -145 -40 -208 -104 -89
-91 -196 -114 -274 -58 -91 65 -123 191 -166 647 -6 66 -13 134 -15 150 -3 17
-7 57 -10 90 -10 119 -16 161 -32 225 -9 36 -21 68 -27 72 -15 10 -13 273 3
338 45 177 155 289 315 319 31 6 128 15 214 21 241 16 439 46 571 87 169 52
170 52 246 62 110 15 239 6 317 -22z m-84 -1815 c12 -8 -43 -24 -124 -37 -98
-16 -204 -40 -204 -47 0 -4 -15 -8 -34 -8 -19 0 -45 -4 -58 -9 -13 -5 -84 -12
-158 -15 -74 -4 -143 -9 -152 -12 -10 -3 -18 -1 -18 3 0 17 106 43 171 43 36
0 107 11 159 24 52 13 147 29 210 35 63 6 129 15 145 20 39 12 47 12 63 3z
m93 -49 c17 -43 11 -157 -12 -225 -26 -79 -57 -118 -121 -154 -49 -27 -60 -29
-143 -27 -49 2 -135 -4 -190 -12 -55 -8 -125 -17 -155 -21 -30 -3 -74 -18 -98
-31 -36 -21 -52 -25 -101 -21 -105 7 -176 80 -217 218 -14 48 -14 113 0 127 3
3 24 -10 48 -30 57 -46 150 -92 216 -106 63 -13 268 -15 276 -2 4 5 25 12 49
16 156 24 295 109 387 234 24 34 45 61 47 61 2 0 8 -12 14 -27z m-226 -72 l24
-18 -22 -11 c-53 -26 -103 -42 -178 -57 -45 -8 -84 -17 -88 -19 -3 -2 -62 -10
-129 -16 -146 -14 -208 -8 -215 21 -7 28 12 34 178 53 77 9 190 27 250 40 137
30 151 30 180 7z m-628 -7 c-3 -3 -12 -4 -19 -1 -8 3 -5 6 6 6 11 1 17 -2 13
-5z"/>
<path d="M2965 3370 c-76 -10 -241 -75 -260 -103 -23 -33 -18 -69 13 -95 23
-21 34 -23 76 -18 28 3 79 21 120 43 l71 38 125 -1 c92 0 137 -5 169 -17 55
-21 61 -21 61 2 0 25 -70 85 -135 115 -47 22 -142 47 -168 45 -7 -1 -39 -5
-72 -9z"/>
<path d="M1802 3192 c-49 -18 -68 -31 -129 -90 -47 -46 -83 -152 -52 -152 6 0
32 15 58 34 91 66 193 85 336 62 101 -16 164 33 134 105 -16 40 -53 51 -179
56 -95 3 -124 0 -168 -15z"/>
<path d="M3005 3031 c-139 -37 -234 -135 -250 -257 -8 -56 10 -87 21 -37 22
100 63 167 129 211 61 41 114 56 190 55 99 -1 184 -50 248 -142 22 -32 33 -41
35 -29 4 23 -30 87 -65 120 -67 64 -219 103 -308 79z"/>
<path d="M2984 2950 c-39 -18 -83 -65 -97 -102 -10 -28 8 -21 24 10 56 108
197 124 281 30 15 -17 28 -27 28 -22 0 20 -74 84 -108 94 -52 14 -81 12 -128
-10z"/>
<path d="M3013 2913 c-25 -5 -29 -13 -12 -30 6 -6 9 -23 7 -39 -3 -27 -6 -29
-47 -28 l-43 1 6 -35 c7 -45 45 -101 74 -109 13 -3 49 0 80 6 73 14 102 46
102 112 0 88 -72 140 -167 122z"/>
<path d="M1855 2855 c-80 -33 -139 -93 -166 -169 -19 -56 -19 -106 0 -106 5 0
14 21 21 48 40 147 139 219 288 210 118 -7 198 -57 259 -164 20 -35 38 -62 40
-61 8 8 10 76 2 72 -5 -4 -9 3 -9 14 0 12 -5 21 -10 21 -6 0 -16 11 -22 25 -6
14 -16 25 -21 25 -5 0 -20 10 -32 23 -42 41 -57 50 -117 68 -83 26 -159 24
-233 -6z"/>
<path d="M1953 2810 c-71 -16 -116 -70 -128 -151 -5 -37 -2 -57 14 -94 12 -27
24 -46 27 -42 3 3 -2 19 -10 36 -23 43 -21 122 4 154 11 14 20 29 20 34 0 15
76 53 106 53 54 0 102 -20 133 -56 17 -19 31 -29 31 -21 0 20 -58 69 -100 83
-39 15 -51 15 -97 4z"/>
<path d="M2883 2785 c0 -22 2 -30 4 -17 2 12 2 30 0 40 -3 9 -5 -1 -4 -23z"/>
<path d="M1951 2759 c-22 -9 -23 -11 -7 -27 35 -39 8 -78 -45 -67 l-32 7 7
-42 c7 -48 30 -87 54 -94 10 -2 48 -1 86 2 59 6 72 11 88 33 41 54 20 143 -41
177 -41 24 -72 26 -110 11z"/>
<path d="M2896 2715 c6 -32 21 -55 36 -55 5 0 1 12 -10 28 -10 15 -22 34 -26
42 -3 8 -3 2 0 -15z"/>
<path d="M2445 1640 c3 -5 16 -10 28 -9 21 0 21 1 2 9 -28 12 -37 12 -30 0z"/>
<path d="M4638 2309 c-39 -84 -67 -157 -72 -194 -6 -36 -4 -34 12 15 11 30 34
86 51 124 17 38 30 74 28 79 -2 6 -10 -5 -19 -24z"/>
<path d="M4249 2253 c-9 -25 -14 -88 -14 -185 0 -131 1 -144 14 -120 10 20 12
51 8 128 -4 57 -2 126 3 155 12 63 7 74 -11 22z"/>
<path d="M3500 1421 c0 -26 87 -116 123 -126 12 -4 31 -10 42 -14 62 -26 103
-40 130 -46 17 -4 38 -14 48 -22 14 -13 22 -14 42 -5 14 6 25 16 25 22 0 14
-79 70 -100 70 -9 0 -20 4 -25 9 -6 5 -26 14 -45 20 -105 31 -207 74 -222 94
l-18 22 0 -24z"/>
<path d="M4825 1143 c-24 -56 -74 -132 -120 -181 -54 -58 -165 -110 -340 -161
-257 -74 -383 -83 -525 -36 -102 33 -222 89 -243 113 -8 9 -19 31 -25 47 -8
24 -11 26 -11 9 -1 -12 6 -37 14 -57 12 -29 28 -41 97 -75 129 -64 229 -87
378 -87 201 0 372 35 502 102 72 37 188 136 212 181 20 36 66 131 77 160 15
38 0 24 -16 -15z"/>
<path d="M3510 1146 c0 -22 64 -86 87 -86 10 0 14 -6 11 -18 -4 -15 7 -21 61
-36 113 -32 185 -57 201 -71 15 -14 110 -10 110 5 0 3 -12 13 -27 20 -16 8
-40 22 -55 32 -14 10 -66 29 -115 43 -117 34 -234 84 -255 109 -17 20 -18 20
-18 2z"/>
</g>
</svg>
