<svg width="269" height="151" viewBox="0 0 269 151" fill="none" xmlns="http://www.w3.org/2000/svg">
<g opacity="0.5">
<path d="M217.43 146.695L214.293 146.695L212.801 134.594H217.431L217.43 146.695Z" fill="#9E616A"/>
<path d="M218.233 149.745L208.117 149.745V149.617C208.117 148.573 208.532 147.571 209.271 146.833C210.009 146.095 211.01 145.68 212.055 145.68L218.233 145.68L218.233 149.745Z" fill="#2F2E41"/>
<path d="M191.891 146.603L188.84 145.875L190.196 133.758L194.699 134.832L191.891 146.603Z" fill="#9E616A"/>
<path d="M191.961 149.746L182.121 147.398L182.151 147.274C182.393 146.258 183.029 145.38 183.919 144.833C184.808 144.286 185.879 144.115 186.894 144.357L192.904 145.791L191.961 149.746Z" fill="#2F2E41"/>
<path d="M203.729 44.3105C207.394 44.3105 210.365 41.3396 210.365 37.6748C210.365 34.01 207.394 31.0391 203.729 31.0391C200.065 31.0391 197.094 34.01 197.094 37.6748C197.094 41.3396 200.065 44.3105 203.729 44.3105Z" fill="#9E616A"/>
<path d="M219.404 85.0042C219.404 85.0042 222.493 88.6653 218.603 94.2714C214.713 99.8774 211.12 105.369 211.12 105.369L202.425 121.844L193.141 143.724C193.141 143.724 187.535 142.123 187.306 141.436C187.078 140.75 193.958 118.755 193.958 118.755C193.958 118.755 195.295 109.984 196.783 107.124C198.27 104.264 202.001 82.4051 205.548 82.1763C209.095 81.9475 219.404 85.0042 219.404 85.0042Z" fill="#2F2E41"/>
<path d="M218.807 91.5234L219.217 109.257C219.217 109.257 221.174 124.334 220.03 129.597C218.886 134.86 218.417 143.465 218.417 143.465L212.582 142.893L212.124 122.414C212.124 122.414 210.522 118.982 210.98 117.494C211.438 116.007 209.035 103.765 209.035 103.765L218.807 91.5234Z" fill="#2F2E41"/>
<path d="M199.447 85.5736C202.88 89.2337 219.972 86.1445 219.972 86.1445L219.745 83.5134L219.983 81.1124L219.297 69.8995C219.033 65.4055 219.01 60.9005 219.226 56.4039C219.247 55.9117 219.217 55.4186 219.138 54.9323C217.958 47.7581 211.895 43.3623 211.574 43.4707C211.413 43.5238 209.693 44.4201 207.898 45.3627C205.838 46.4449 203.681 47.5889 203.681 47.5889C200.934 48.6202 201.393 65.0953 200.476 66.5824C199.56 68.0695 200.476 73.2167 200.476 73.2167L199.447 78.136C199.447 78.136 196.015 81.9134 199.447 85.5736Z" fill="#CACACA"/>
<path opacity="0.1" d="M210.534 49.2524C210.534 49.2524 213.737 58.8627 213.051 65.384C212.365 71.9053 204.928 90.554 204.928 90.554L202.411 91.9269V95.1303L200.641 90.335L205.509 80.1556C205.509 80.1556 199.436 45.0192 210.534 49.2524Z" fill="black"/>
<path d="M205.911 40.5013C205.878 40.0887 205.788 39.6827 205.643 39.295C205.351 38.7469 204.682 38.5173 204.064 38.4634C203.274 38.3947 202.479 38.5314 201.688 38.4773C200.898 38.4231 200.053 38.1219 199.66 37.4341C199.54 37.1418 199.392 36.862 199.217 36.5989C198.784 36.1039 197.994 36.1806 197.371 36.3928C196.748 36.6049 196.099 36.9149 195.462 36.7489C194.927 35.2512 195.586 33.5235 196.726 32.4145C197.866 31.3055 199.404 30.7087 200.931 30.2639C202.945 29.6772 205.212 29.3305 207.064 30.3161C209.749 31.7455 210.697 35.5285 210.449 38.3482C210.355 39.414 210.202 40.6209 209.341 41.3406C208.078 42.3953 206.292 42.3048 205.911 40.5013Z" fill="#2F2E41"/>
<path d="M199.773 99.7016C200.081 99.4543 200.332 99.1423 200.507 98.7878C200.681 98.4332 200.776 98.0446 200.784 97.6495C200.793 97.2543 200.714 96.862 200.555 96.5005C200.395 96.1389 200.158 95.8167 199.86 95.5566L203.461 86.6484L198.566 87.6348L195.897 95.9429C195.494 96.4719 195.298 97.1307 195.347 97.7943C195.397 98.458 195.688 99.0804 196.166 99.5437C196.643 100.007 197.275 100.279 197.939 100.308C198.604 100.337 199.257 100.121 199.773 99.7016Z" fill="#9E616A"/>
<path d="M210.198 47.7089C210.198 47.7089 213.402 57.3193 212.715 63.8406C212.029 70.3619 204.592 89.0105 204.592 89.0105L202.075 90.3834V93.5869L196.812 92.0996L197.957 88.3241C197.957 88.3241 196.126 86.0359 197.385 85.3495C198.643 84.663 198.414 80.8875 198.414 80.8875C198.414 80.8875 199.101 43.4758 210.198 47.7089Z" fill="#CACACA"/>
<path d="M142.076 149.819H28.1367V0H142.076V149.819Z" fill="white"/>
<path d="M142.076 149.819H28.1367V0H142.076V149.819ZM29.1509 148.805H141.062V1.01421H29.1509V148.805Z" fill="#E4E4E4"/>
<path d="M124.574 37.8984H45.2617V43.1859H124.574V37.8984Z" fill="#E4E4E4"/>
<path d="M114.373 19.0078H63.3867V21.6516H114.373V19.0078Z" fill="#E4E4E4"/>
<path d="M124.574 49.6016H45.2617V54.889H124.574V49.6016Z" fill="#E4E4E4"/>
<path d="M124.574 61.3125H45.2617V66.6H124.574V61.3125Z" fill="#E4E4E4"/>
<path d="M49.4137 25.054C52.1253 25.054 54.3235 22.8558 54.3235 20.1442C54.3235 17.4326 52.1253 15.2344 49.4137 15.2344C46.7021 15.2344 44.5039 17.4326 44.5039 20.1442C44.5039 22.8558 46.7021 25.054 49.4137 25.054Z" fill="#4169E1"/>
<path d="M124.571 78.8594H44.5039V127.58H124.571V78.8594Z" fill="#4169E1"/>
<path d="M49.0189 134.417C48.5236 133.921 47.8514 133.641 47.1502 133.641C46.4491 133.64 45.7763 133.918 45.2801 134.413C44.7838 134.908 44.5046 135.581 44.5039 136.282C44.5032 136.983 44.7811 137.656 45.2764 138.152L49.0116 141.894L52.754 138.159C52.9998 137.914 53.1948 137.623 53.328 137.302C53.4611 136.981 53.5299 136.638 53.5302 136.291C53.5305 135.943 53.4625 135.6 53.3299 135.279C53.1974 134.958 53.0029 134.666 52.7577 134.42C52.5124 134.175 52.2212 133.98 51.9006 133.846C51.5799 133.713 51.2362 133.645 50.889 133.644C50.5419 133.644 50.198 133.712 49.8771 133.845C49.5562 133.977 49.2646 134.172 49.0189 134.417Z" fill="#FF6582"/>
<path d="M268.651 150.574H0.349351C0.256697 150.574 0.167838 150.537 0.102322 150.471C0.0368062 150.406 0 150.317 0 150.224C0 150.132 0.0368062 150.043 0.102322 149.977C0.167838 149.912 0.256697 149.875 0.349351 149.875H268.651C268.743 149.875 268.832 149.912 268.898 149.977C268.963 150.043 269 150.132 269 150.224C269 150.317 268.963 150.406 268.898 150.471C268.832 150.537 268.743 150.574 268.651 150.574Z" fill="#CACACA"/>
</g>
</svg>
