<svg width="25" height="25" viewBox="0 0 25 25" fill="none" xmlns="http://www.w3.org/2000/svg">
<path d="M13.2792 12.0751L18.8116 19.9885H16.5411L12.0265 13.5311V13.5308L11.3637 12.5828L6.08984 5.03906H8.36038L12.6163 11.1272L13.2792 12.0751Z" fill="black"/>
<path d="M22.0964 0.203125H2.82441C1.35734 0.203125 0.167969 1.39249 0.167969 2.85957V22.1315C0.167969 23.5986 1.35734 24.788 2.82441 24.788H22.0964C23.5634 24.788 24.7528 23.5986 24.7528 22.1315V2.85957C24.7528 1.39249 23.5634 0.203125 22.0964 0.203125ZM15.849 21.0515L11.2804 14.4026L5.5606 21.0515H4.08231L10.624 13.4477L4.08231 3.92692H9.07181L13.3979 10.223L18.8142 3.92692H20.2925L14.0545 11.1781H14.0541L20.8385 21.0515H15.849Z" fill="black"/>
</svg>
